<svg id="Layer_1" data-name="Layer 1" xmlns="http://www.w3.org/2000/svg" viewBox="0 0 255 252"><defs><style>.cls-1{fill:#ac4141}.cls-2{fill:#61474b}.cls-3{fill:#1a2637}.cls-4{fill:#6b655f}.cls-5{fill:#836953}.cls-6{fill:#985940}.cls-7{fill:#ad5e35}.cls-8{fill:#dabc9c}.cls-9{fill:#c19e81}</style></defs><path class="cls-1" d="M1 197V1h113c-1.77 2.62-5.44 3-6.94 6l-.14.08a53.27 53.27 0 0 0-21.74 18.17c-8.29 12.15-15.88 25.23-19.41 40l-.65 1.5q0 4.77-.08 9.54L65 97.07c-.9 21 1.22 41.92 0 62.9-.68 12.12-4.83 23.34-8 34.83-1.28.19-2.45.53-2.86 2-5.77 5.5-7.42 12.51-7.33 20.15a82.73 82.73 0 0 1-8-4.05A117 117 0 0 0 1 197zM171 1h85v197a2.35 2.35 0 0 1-2.25-.71c-.9-1.39-1.74-2.83-2.71-4.17-6.36-8.78-14.19-15.67-24.72-19.05-3.76-1.2-7.47-1.72-10.87 1 .14-9.43-3.29-18.29-4.45-27.45-1.72-13.67-7.86-26-10.86-39.2a23.68 23.68 0 0 0-4.26-9.52v-1.76a7.77 7.77 0 0 0-2.9-5.35c.66-5.26-2.06-10.2-1.8-15.3.7-14-2.28-27.47-6.37-40.69-1.95-6.29-2.1-13.16-5.91-18.86-.62-6.3-5.46-10.52-7.9-15.94z"/><path class="cls-2" d="M215.45 175.07c3.4-2.72 7.11-2.2 10.87-1 10.53 3.38 18.36 10.27 24.72 19.05 1 1.34 1.81 2.78 2.71 4.17-4.32 1.2-6.72-2.37-9.61-4.22-5.44-3.47-11.14-4-16.58-1.36-7.89 3.88-15.47 8.44-23 13.06-6.25 3.85-7 6.43-4.6 13.41 2 5.67 4 11.31 4.35 17.37.3 5.81.45 11.63.66 17.45H137a29.65 29.65 0 0 1 1-8.39c1.33-5.76-.16-9.67-5.28-12.62a59.31 59.31 0 0 0-9.91-4.67c-13.28-4.65-27.31-7.86-35-21.7-1.65-3-3.74-1.8-4.86 1.2a52.66 52.66 0 0 1-7.65 14c-3.69 4.72-6.11 5-11.3 1.21 3.49-4.78 7.48-9.27 9-15.2a7.47 7.47 0 0 0 3.58-4c3.61-9.47 7.58-18.84 8.39-29.12a2.9 2.9 0 0 0 1.64-2.71 5.18 5.18 0 0 1 .17-.56 4.61 4.61 0 0 0 4.28-2c4.17-4 2.66-8.05 0-12.06l-2.11-12.7c2.11 1.37 3.57 3.81 6.45 3.92l.07.07a5.08 5.08 0 0 0 2.64 5.24l4.64 2.39a3.66 3.66 0 0 0 2.15 3l.36 1.22L107 165c-3 1.08-1.39 2.82-.5 4.28 4.31 7.11 8.21 14.38 9.88 22.64a3.68 3.68 0 0 0 3.51 3c3.15.35 6.31.59 9.11-1.42l4.51-3.5c4.41-2.27 8.84-4.47 13.16-7 6.28-3.63 12.94-6.85 20.63-6.22-.32 10.41-.79 20.84 1.68 31.1 0 4-.13 8-.11 11.93 0 1.84.13 3.77 2.2 4.6s4 0 5.37-1.55c1.86-2.1 4.43-3.53 5.69-6.18 3.63-1.36 6.58-3.33 6.65-7.75q12.28-13 24.59-25.94a7.08 7.08 0 0 0 1.78-6z"/><path class="cls-3" d="M64 222c5.19 3.75 7.61 3.51 11.3-1.21a52.66 52.66 0 0 0 7.65-14c1.12-3 3.21-4.15 4.86-1.2 7.69 13.84 21.72 17 35 21.7a59.31 59.31 0 0 1 9.89 4.71c5.12 2.95 6.61 6.86 5.28 12.62a29.65 29.65 0 0 0-1 8.39H40l3-14.32c.84-7.32 4.47-14.16 3.85-21.75-.09-7.64 1.56-14.65 7.33-20.15a3.12 3.12 0 0 1 2.7 2.21c-1.84 8.15-1.1 15.6 5.81 21.37zM205 253c-.21-5.82-.36-11.64-.66-17.45-.31-6.06-2.38-11.7-4.35-17.37-2.42-7-1.65-9.56 4.6-13.41 7.5-4.62 15.08-9.18 23-13.06 5.44-2.68 11.14-2.11 16.58 1.36 2.89 1.85 5.29 5.42 9.61 4.22a2.35 2.35 0 0 0 2.22.71v55z"/><path class="cls-1" d="M24 253H1v-43c5.53 1 10.7 3.2 16.11 4.65 9.87 2.65 10.75 5.47 8.67 15.71-1.5 7.42-2.89 14.96-1.78 22.64z"/><path class="cls-2" d="M24 253c-1.11-7.68.28-15.22 1.78-22.64 2.08-10.24 1.2-13.06-8.67-15.71C11.7 213.2 6.53 211 1 210v-13a117 117 0 0 1 37.87 15.88 82.73 82.73 0 0 0 8 4.05c.62 7.59-3 14.43-3.85 21.76-.07-1.48-.25-3-.18-4.45.35-8.14-2.06-10.93-10.76-11.87A172.51 172.51 0 0 1 33 253zM131 1h21a29.38 29.38 0 0 1-.56 4.41c-1.53 5.63-.48 7.5 5.57 9.48-1.82 5.72-10 11.13-17.34 10.85-10.59-.41-21.17-1.22-31.75-1.85 1.52-2.48 4.12-3.2 6.63-4.05 2-.69 4.25-1.16 5.28-3.35 1.34-2.86 3.34-3 6.15-2.26 4.24 1.1 6.42-1.11 5.31-5.41A16.21 16.21 0 0 1 131 1z"/><path class="cls-3" d="M131 1a16.21 16.21 0 0 0 .29 7.82c1.11 4.3-1.07 6.51-5.31 5.41-2.81-.73-4.81-.6-6.15 2.26-1 2.19-3.24 2.66-5.28 3.35-2.51.85-5.11 1.57-6.63 4.05L100 26.41l-8.52-3C98.33 18.88 104 14.13 106.92 7l.14-.08c5.73 2.13 7-2.38 8.94-6z"/><path class="cls-1" d="M33 253a172.51 172.51 0 0 0-1-30.63c8.7.94 11.11 3.73 10.76 11.87-.07 1.48.11 3 .18 4.45q-1.5 7.16-3 14.31z"/><path class="cls-2" d="M171 1c2.44 5.42 7.28 9.64 7.94 15.94-1.94.34-3.43 1.2-3.93 3.26-6 3.8-9.81 1.25-12.71-4.32a29.25 29.25 0 0 0-3.3-4.29l.06-4.11A9.26 9.26 0 0 0 162 1z"/><path class="cls-4" d="M159.05 7.48l-.05 4.11c-.66 1.11-1.32 2.2-2 3.3-6-2-7.1-3.85-5.57-9.48A29.38 29.38 0 0 0 152 1h6z"/><path class="cls-2" d="M116 1c-1.92 3.58-3.21 8.09-8.94 6 1.5-2.94 5.17-3.34 6.94-6z"/><path class="cls-5" d="M159.05 7.48L158 1h4a9.26 9.26 0 0 1-2.95 6.48z"/><path class="cls-6" d="M64 222l-1.29-1.66c.25-2.11 1-4.73-.61-6.12-4.83-4.17-4.57-9.8-5.2-15.25a5 5 0 0 0 .1-4.17c3.17-11.49 7.32-22.71 8-34.83 1.18-21-.94-41.93 0-62.9 1.23.44 1.63 2.12 3.26 2.15 1.12-1.68 1.64-4.06 4.27-4.22l.43.56c0 6.17 1.84 12 3.27 18 1.1 4.54-.18 9.83 4 13.48.72 10.37 3.86 20.53 2.56 31.07-2.85 2.86-1.18 6.7-2.15 10-3.74 12.67-2.16 26.39-7.6 38.72-1.58 5.88-5.57 10.37-9.04 15.17z"/><path class="cls-2" d="M106.92 7c-3 7.09-8.59 11.84-15.41 16.34l8.52 3c-1.29 1.71-2.44 3.56-3.88 5.13-8 8.7-18.62 15.6-19.58 29.09-.09 1.23-1.2 2.36-1.59 3.61-.77 2.49-2.54 4.77-1.77 7.61 1.71 6.34.27 12.92 1.51 19.3A4.63 4.63 0 0 1 73 95.56c-.14-.18-.29-.37-.42-.56-2.91-4.59-4.11-9.69-4.63-15A4.39 4.39 0 0 0 65 76.27q0-4.77.08-9.53c.22-.5.44-1 .65-1.51 3.53-14.75 11.12-27.83 19.41-40A53.27 53.27 0 0 1 106.92 7z"/><path class="cls-5" d="M65 76.27A4.39 4.39 0 0 1 67.9 80c.52 5.34 1.72 10.44 4.63 15-2.64.16-3.16 2.54-4.28 4.22-1.63 0-2-1.71-3.26-2.15q.01-10.39.01-20.8z"/><path class="cls-2" d="M57 194.8a5 5 0 0 1-.15 4.15 3.12 3.12 0 0 0-2.71-2.17c.44-1.45 1.61-1.78 2.86-1.98z"/><path class="cls-5" d="M65.77 65.23c-.21.5-.43 1-.65 1.51.22-.51.44-1.01.65-1.51z"/><path class="cls-7" d="M215.45 175.07l-.3 2a259.74 259.74 0 0 0-38.87 41.08c-.82 1.07-1.7 2.25-3.24 1.87-1.86-.45-1.79-2.16-1.95-3.63-.33-2.9.56-6.1-2.11-8.42-2.47-10.26-2-20.69-1.69-31.1 3.61-8.47 5.13-17.75 9.84-25.8 5.92-4.61 7-11.36 7.76-18.13.55-4.92-.7-10 1.13-14.81 2.25-5.9 1.48-11.35-1.48-16.74-1-1.78-2.11-3.7-.55-6 7.11 7.25 7.11 7.25 11.89 3.45a23.68 23.68 0 0 1 4.26 9.52c3 13.23 9.14 25.53 10.86 39.2 1.16 9.22 4.59 18.08 4.45 27.51z"/><path class="cls-6" d="M195.88 98.9c-4.78 3.8-4.78 3.8-11.89-3.45-1.56 2.25-.42 4.17.55 6 3 5.39 3.73 10.84 1.48 16.74-1.83 4.77-.58 9.89-1.13 14.81-.76 6.77-1.84 13.52-7.76 18.13.15-3.41 2.39-6.36 2.13-9.86 2.92-.42 1.27-2.7 1.68-4.14.08-.72.16-1.43.23-2.15 3.34-4.34 1.39-9.33 1.71-14-.55-5.31 3-11.1-1.86-15.91-2.23-13.62-2.17-27.36-2-41.1V61.3c3-7.33 2.43-14.73-.43-21.79-2.59-6.34-4.76-12.46-3.59-19.31.5-2.06 2-2.92 3.93-3.26 3.81 5.7 4 12.57 5.91 18.86 4.09 13.22 7.07 26.64 6.37 40.69-.26 5.1 2.46 10 1.8 15.3-.05 2.34.36 4.42 2.9 5.35z"/><path class="cls-7" d="M195.92 97.14c-2.54-.93-2.95-3-2.9-5.35a7.77 7.77 0 0 1 2.9 5.35z"/><path class="cls-8" d="M105.2 159.52l-.36-1.22a3.2 3.2 0 0 0-2.15-3c-.11-1.65-1.3-3.76 1.53-4.28 1.84-.34 1.73-2.22 2.79-3.15l4.07 1.26a5.86 5.86 0 0 0 5.79-.06l.27-.1c4.24 0 8.31-.7 11.88-3.21l2.45-.34 1.43-.71c2.28-1.07 3.49-4.89 7-2.69v.26-.28c-3.69-3.7-7.74-.56-11.63-.62-9.57-2.11-19.13-4.16-27.43 3.74A3.76 3.76 0 0 0 104 147a11.81 11.81 0 0 1-6.89 2l-1.66-1.28-.07-.07a72.15 72.15 0 0 1-6.81-15l-1-1.38-1.33-3c5.93-1.56 4 6.12 8.21 7.06 2.24-8.66 4.81-17.09 6.49-25.68 1.1-5.59 2.34-10.28 8.52-12.18 3.27-1 3.38-3.43 1.14-5.79a27.12 27.12 0 0 0-3.55-2.69c-.21-1.71.28-3.6-1.3-5l2-1c2.63-1.76 1-2.93-.56-4.11-1-.8-1.5-1.8-.77-3a1.66 1.66 0 0 1 2.58-.41c1.47.93 2.87 2.83 4.72.95s1.13-4 .22-6c-2.81-6.16-3.46-12.72-3.85-19.35A15.34 15.34 0 0 1 113 40.72c2.93-4.16 6.17-8.26 7.09-13.51 5.31-.44 10.59.16 15.88.28 4.58.1 9.26 1.53 13.74-.58 3.43-1.62 5.57-.9 6.57 3 .65 2.55 1.9 5 2.76 7.45 1.79 5.23 4.66 9.51 9.87 11.87 2.57 3.09 4.49 6.43 4 10.67L170 58.2c-2 7.51-1 14.73.2 21.94.12.69 1 1.26 1.5 1.89l.13 3a11.2 11.2 0 0 0-.6 5.9c1.31 10 .81 19.89.14 29.89-.33 5-3 10-.91 15.14-3.86 6.58-8.53 12.44-14.81 16.89a8 8 0 0 0-5.67 2.68c-9 8.9-19.87 13.26-32.4 13.8l-3-1.94c-.21-4.87-3.18-6.88-7.64-7.34zM131.28 85c-1.21-.26-2.5-1.13-3.6.82 1.35 2.61 3.38 3.48 6.28 2.29a19.43 19.43 0 0 0 7.3.93c3.4.18 6.16-.55 6.75-4.77a9.33 9.33 0 0 0-10.08-1.3c-2.23.62-4.2 2.11-6.65 2.03zm22.33-11.65c-3.38-3.49-7.15-6.73-11.68-5.18-5.89 2-11.27 5.53-18.16 9.06 6.58.45 11-1.77 15.12-3.86 5.11-2.6 9.55 2.33 14.72-.05zm-51 49.34a23.13 23.13 0 0 1-.66 3.78c-.49 1.39-1.35 2.64-1.94 4s-.91 2.89.39 4.11c1.13 1.06 2.45.79 3.71.25a36 36 0 0 0 4-1.89c3.55-2.09 3.67-6.12.14-8.33-1.57-1.04-3.25-2.15-5.61-1.95z"/><path class="cls-5" d="M88.55 132.57a72.15 72.15 0 0 0 6.81 15c-2.88-.11-4.34-2.55-6.45-3.91a33.71 33.71 0 0 0-2.91-8.78c-1.33-3-1.63-6.9-5.79-7.88-4.14-3.65-2.86-8.94-4-13.48-1.43-5.91-3.24-11.79-3.27-18a4.63 4.63 0 0 0 1.77-4.41c-1.24-6.38.2-13-1.51-19.3-.77-2.84 1-5.12 1.77-7.61.39-1.25 1.5-2.38 1.59-3.61 1-13.49 11.57-20.39 19.58-29.09 1.44-1.57 2.59-3.42 3.88-5.13l7.89-2.52c10.58.63 21.16 1.44 31.75 1.85 7.34.3 15.53-5.09 17.34-10.81.66-1.1 1.32-2.19 2-3.3a29.25 29.25 0 0 1 3.31 4.29C165.2 21.45 169 24 175 20.2c-1.18 6.85 1 13 3.52 19.22 2.86 7.06 3.39 14.46.43 21.78-2-2.24-2.16-5.15-2.82-7.87-1.71-7.09-3-14.25-6.43-20.87-2-3.88-4.37-5.07-8.46-3.48a27 27 0 0 0 5 12.46 12.48 12.48 0 0 1 2.65 7.81c-5.21-2.36-8.08-6.64-9.87-11.87-.86-2.5-2.11-4.9-2.76-7.45-1-3.92-3.14-4.64-6.57-3-4.48 2.11-9.16.68-13.74.58-5.29-.12-10.57-.72-15.88-.28a39.06 39.06 0 0 0-4.92-.43c-14.8.56-22.58 11.25-30.61 21.47a4.29 4.29 0 0 0-.68 3.3c.82 3.05.18 5.74-.65 8.71-2 7.11-.89 8.27 6.62 9.29 4 .55 8.12 1 11 5l-5.3.56a12.28 12.28 0 0 0-17.07 3.14c4.79 1.08 9 .87 12.54-2.71-.63 2.92-2.55 4.9-4.83 6.61s-4.33 3.43-5.17 6.3C76.42 90 78 93.81 78 97c-.52 7.28 1.94 14.11 3.36 21.07.76 3.68 1.93 7.44 4.94 10.15.44 1 .88 2 1.33 3z"/><path class="cls-4" d="M155.66 152.85c6.28-4.45 11-10.31 14.81-16.88a7.55 7.55 0 0 0 2-3.93c3.06-11.09 4.51-22.33 3.08-33.82 4.06.43 2.88 5.14 5.5 6.76 4.82 4.81 1.31 10.6 1.86 15.91-3.27 4.35-1.34 9.34-1.71 14-.07.72-.15 1.43-.23 2.15a4.57 4.57 0 0 0-1.68 4.14c.26 3.5-2 6.45-2.13 9.86-4.71 8-6.23 17.33-9.84 25.8-7.68-.63-14.34 2.59-20.62 6.22-4.32 2.48-8.75 4.68-13.16 7-.78-3 .94-5.78.62-8.73l.36-1.14c3.64-6.31 7.28-12.54 12.61-17.75 2.99-2.97 6.87-5.36 8.53-9.59z"/><path class="cls-6" d="M169 208c2.67 2.32 1.78 5.52 2.11 8.42.16 1.47.09 3.18 1.95 3.63 1.54.38 2.42-.8 3.24-1.87a259.74 259.74 0 0 1 38.87-41.08 7.08 7.08 0 0 1-1.78 6q-12.27 13-24.59 25.94c-2.86 2-5.43 4.31-6.65 7.75-1.26 2.65-3.83 4.08-5.69 6.18-1.39 1.56-3.23 2.41-5.37 1.55s-2.19-2.76-2.2-4.6c-.04-3.99.05-7.92.11-11.92z"/><path class="cls-4" d="M80.18 127c4.16 1 4.46 4.83 5.79 7.88a33.71 33.71 0 0 1 2.94 8.81Q90 150 91 156.38v12.06a4.61 4.61 0 0 1-4.28 2c-.44-4.43 2.23-9.87-4-12.41 1.28-10.5-1.82-20.66-2.54-31.03zM129 193.55c-2.8 2-6 1.77-9.11 1.42a3.68 3.68 0 0 1-3.51-3c-1.67-8.26-5.57-15.53-9.88-22.64-.89-1.46-2.54-3.2.5-4.28V165l2 2c1.93 1.69 3.39 4.14 6.46 4 .22 1.65.5 3.27 2.15 4.2 2.53 3.66 3.73 7.92 5.47 11.94a2.73 2.73 0 0 0 2.88 2.73 5.94 5.94 0 0 0 3 2.52z"/><path class="cls-5" d="M82.74 158.07c6.27 2.54 3.6 8 4 12.41a3.58 3.58 0 0 0-.16.56L85 173.63c-.81 10.28-4.78 19.65-8.39 29.12a7.47 7.47 0 0 1-3.58 4c5.44-12.34 3.86-26.06 7.6-38.73.93-3.25-.74-7.09 2.11-9.95zM115.45 171c-3.07.16-4.53-2.29-6.46-4l-2-2v.05l-1.8-5.51 1.77.53a17 17 0 0 0 7.64 7.34l3 1.94z"/><path class="cls-9" d="M97.09 149a11.81 11.81 0 0 0 6.89-2l3 .89c-1.06.93-1 2.81-2.79 3.15-2.83.52-1.64 2.63-1.53 4.28l-4.64-2.39c-.27-1.34-.6-2.66-.93-3.93z"/><path class="cls-5" d="M91.06 168.44v-12.06c2.66 4.01 4.17 8.03 0 12.06z"/><path class="cls-9" d="M129 193.55v-1.16c1.84-3.63 1.37-8.34 5.15-11.06.33 2.94-1.39 5.74-.61 8.72z"/><path class="cls-1" d="M182.13 216.78c1.22-3.44 3.79-5.71 6.65-7.75-.07 4.42-3.02 6.39-6.65 7.75z"/><path class="cls-5" d="M97.09 149l1 4a5.08 5.08 0 0 1-2.64-5.24z"/><path class="cls-4" d="M85 173.63l1.62-2.63a2.93 2.93 0 0 1-1.62 2.63z"/><path class="cls-9" d="M102.69 155.27a3.2 3.2 0 0 1 2.15 3 3.66 3.66 0 0 1-2.15-3z"/><path class="cls-2" d="M56.88 199c.63 5.45.37 11.08 5.2 15.25 1.62 1.39.86 4 .61 6.12-6.91-5.82-7.69-13.27-5.81-21.37z"/><path class="cls-5" d="M181 105c-2.62-1.62-1.44-6.33-5.5-6.77q-1.85-6.58-3.68-13.18c0-1-.08-2-.13-3 .18-6.08.31-12.16 1.7-18.13a5.09 5.09 0 0 0 5.58 0c-.12 13.7-.18 27.44 2.03 41.08z"/><path class="cls-2" d="M179 63.88a5.09 5.09 0 0 1-5.58 0c-.16-1.32-.33-2.65-.5-4 .51-4.24-1.41-7.58-4-10.67a12.48 12.48 0 0 0-2.65-7.81 27 27 0 0 1-5-12.46c4.09-1.59 6.46-.4 8.46 3.48 3.4 6.62 4.72 13.78 6.43 20.87.66 2.72.81 5.63 2.82 7.87z"/><path class="cls-5" d="M181.17 134.93c.37-4.7-1.56-9.69 1.71-14-.32 4.67 1.63 9.66-1.71 14zM179.26 141.22a4.57 4.57 0 0 1 1.68-4.14c-.41 1.44 1.24 3.72-1.68 4.14z"/><path class="cls-9" d="M95.59 75.08l5.3-.56c-2.9-4-7-4.42-11-5-7.51-1-8.61-2.18-6.62-9.29.83-3 1.47-5.66.65-8.71a4.29 4.29 0 0 1 .68-3.3c8-10.22 15.81-20.91 30.61-21.47a39.06 39.06 0 0 1 4.92.43c-.92 5.25-4.16 9.35-7.09 13.51A15.34 15.34 0 0 0 110.15 51c.39 6.63 1 13.19 3.85 19.35.91 2 1.56 4.24-.22 6s-3.25 0-4.72-.95a1.66 1.66 0 0 0-2.58.41c-.73 1.21-.28 2.21.77 3 1.52 1.18 3.19 2.35.56 4.11-3.59-1.24-5.9-5.54-10.49-4.42zM86.27 128.21c-3-2.71-4.18-6.47-4.94-10.15-1.42-7-3.88-13.79-3.36-21.07 4.28.09 7.81-3.95 12.39-2.22C93.68 96 96.12 94.75 98 92c2.89-1.4 5.39-4 9-3.11a27.12 27.12 0 0 1 3.55 2.69c2.24 2.36 2.13 4.78-1.14 5.79-6.18 1.9-7.42 6.59-8.52 12.18-1.68 8.59-4.25 17-6.49 25.68-4.15-.9-2.2-8.58-8.13-7.02z"/><path class="cls-4" d="M107.08 88.93c-3.66-.84-6.16 1.71-9 3.11l-3.28-.24c-.47-3.44-4-4.34-5.26-7a4.83 4.83 0 0 0-3.67 4L81 88.47c.82-2.87 2.91-4.7 5.17-6.4s4.2-3.69 4.83-6.61l4.55-.46c.58 1.14 1.15 2.28 1.71 3.4 2.31 2.6 5.35 4.11 8.48 5.5 1.62 1.43 1.13 3.32 1.34 5.03z"/><path class="cls-9" d="M115.45 171l2.14-1.67c12.53-.54 23.43-4.9 32.4-13.8a8 8 0 0 1 5.67-2.68c-1.68 4.23-5.54 6.62-8.56 9.58-5.33 5.21-9 11.44-12.61 17.75-.34-4 1-7.6 2.52-11.17-4.25 1.13-8.21 3.22-12.73 3.44a10 10 0 0 0-6.66 2.77c-1.62-.95-1.95-2.57-2.17-4.22zM171.84 85q1.83 6.59 3.68 13.18c1.43 11.5 0 22.74-3.08 33.83a7.55 7.55 0 0 1-2 3.93c-2.12-5.17.58-10.12.91-15.15.67-10 1.17-19.93-.14-29.89a11.2 11.2 0 0 1 .63-5.9z"/><path d="M107 147.87l-3-.89a3.76 3.76 0 0 1-3.11-1.86c8.3-7.9 17.86-5.85 27.43-3.74-2 2.19-4.58 1.29-7 1.55-2 .22-4.34-.48-6.82 1.62l6.13.93-3.47 3.52-.27.1-5.79.06z" fill="#b47056"/><path class="cls-5" d="M153.61 73.32c-5.17 2.38-9.66-2.55-14.72 0-4.1 2.09-8.54 4.31-15.12 3.86 6.89-3.53 12.27-7 18.16-9.06 4.53-1.53 8.3 1.71 11.68 5.2z"/><path class="cls-9" d="M102.64 122.66c2.31-.2 4 .91 5.66 1.92 3.53 2.21 3.41 6.24-.14 8.33a36 36 0 0 1-4 1.89c-1.26.54-2.58.81-3.71-.25-1.3-1.22-1-2.7-.39-4.11s1.45-2.61 1.94-4a23.13 23.13 0 0 0 .64-3.78z"/><path class="cls-5" d="M120.65 145.48l-6.13-.93c2.48-2.1 4.77-1.4 6.82-1.62 2.38-.26 5 .64 7-1.55 3.89.06 7.94-3.08 11.63.62-3.53-2.2-4.74 1.62-7 2.69l-1.43.71-2.45.34c-2.81-.98-5.63-.35-8.44-.26z"/><path class="cls-9" d="M172.91 59.92c.17 1.33.34 2.66.5 4-1.39 6-1.52 12.05-1.7 18.13-.52-.63-1.38-1.2-1.5-1.89C169 72.93 168 65.71 170 58.2z"/><path class="cls-4" d="M137.93 82.94a9.33 9.33 0 0 1 10.07 1.3c-.59 4.22-3.35 5-6.76 4.77q-1.64-3.01-3.31-6.07z"/><path d="M137.93 82.94q1.66 3 3.32 6.07a19.4 19.4 0 0 1-7.29-.93 3 3 0 0 1-2.68-3.08c2.45.08 4.42-1.41 6.65-2.06z" fill="#d6cec6"/><path class="cls-5" d="M105.78 84c-3.13-1.39-6.17-2.9-8.48-5.5 4.61-1.09 6.92 3.21 10.51 4.45z"/><path class="cls-9" d="M120.65 145.48c2.81-.09 5.63-.72 8.39.28-3.57 2.51-7.64 3.18-11.88 3.21 1.16-1.16 2.33-2.32 3.49-3.49zM114.61 167.39a17 17 0 0 1-7.64-7.34c4.46.46 7.43 2.47 7.64 7.34zM131.28 85a3 3 0 0 0 2.72 3.08c-2.9 1.19-4.93.32-6.28-2.29 1.06-1.95 2.35-1.08 3.56-.79zM111.1 149.13l5.79-.06a5.86 5.86 0 0 1-5.79.06zM131.49 145.42l1.43-.71z"/><path class="cls-5" d="M139.93 142v.28-.26z"/><path class="cls-9" d="M88.55 132.57l-1-1.38z"/><path class="cls-8" d="M81 88.47l4.8.36c2.5 2.42 5.74 2.61 8.93 3L98 92c-1.91 2.71-4.35 4-7.67 2.73C85.78 93 82.25 97.08 78 97c0-3.19-1.58-7 3-8.53z"/><path class="cls-9" d="M95.55 75l-4.55.46c-3.55 3.58-7.75 3.79-12.54 2.71A12.28 12.28 0 0 1 95.55 75z"/><path class="cls-8" d="M117.6 175.2a10 10 0 0 1 6.66-2.77c4.52-.22 8.48-2.31 12.73-3.44-1.54 3.57-2.86 7.18-2.52 11.17l-.36 1.14c-3.79 2.73-3.32 7.44-5.16 11.07a5.94 5.94 0 0 1-3-2.52 3.07 3.07 0 0 0-2.88-2.73c-1.74-4-2.94-8.26-5.47-11.92z"/><path class="cls-9" d="M123.07 187.14a3.07 3.07 0 0 1 2.88 2.73 2.73 2.73 0 0 1-2.88-2.73z"/><path class="cls-2" d="M107 165l2 2z"/><path d="M94.75 91.8c-3.19-.36-6.43-.55-8.93-3a4.83 4.83 0 0 1 3.67-4c1.27 2.66 4.79 3.56 5.26 7z" fill="#b0b4ab"/><path class="cls-8" d="M137 169z"/></svg>